<svg width="86" height="55" viewBox="0 0 86 55" fill="none" xmlns="http://www.w3.org/2000/svg">
  <path fill-rule="evenodd" clip-rule="evenodd" d="M17.5657 7.09734C22.0511 2.61194 28.3558 0 34.6991 0C41.0424 0 47.3471 2.61194 51.8325 7.09734C52.925 8.18975 53.9036 9.3916 54.763 10.674C55.9374 10.4428 57.1326 10.32 58.3304 10.32C63.2641 10.32 68.1671 12.3513 71.6557 15.8399C74.6852 18.8694 76.6137 22.9666 77.0693 27.2232C79.404 27.235 81.721 28.1989 83.372 29.85C85.0333 31.5112 86 33.8454 86 36.1948C86 38.5441 85.0333 40.8796 83.372 42.5408C81.7108 44.202 79.3754 45.1687 77.026 45.1687H14.0591C10.3785 45.1687 6.72033 43.6536 4.11768 41.051C1.51508 38.4484 0 34.7902 0 31.1096C0 27.4289 1.51508 23.7719 4.11768 21.1693C6.11446 19.1726 8.7332 17.8193 11.506 17.2958C12.6596 13.4712 14.7398 9.92328 17.5657 7.09734ZM17.625 32.3331H20.1094C20.8177 32.3331 21.2995 32.4555 21.5547 32.7003C21.8151 32.9451 21.9505 33.4347 21.9609 34.169L21.9766 35.2393C21.9818 35.5779 22.0156 35.9086 22.0781 36.2315C22.1094 36.3878 22.1615 36.5935 22.2344 36.8487H24.8828V36.5597C24.6536 36.419 24.5078 36.2003 24.4453 35.9034C24.4036 35.7159 24.3828 35.3591 24.3828 34.8331V34.0597C24.3828 33.2524 24.2708 32.6534 24.0469 32.2628C23.8281 31.867 23.4531 31.5623 22.9219 31.3487C23.5573 31.13 24.013 30.7576 24.2891 30.2315C24.5651 29.7003 24.7031 29.1612 24.7031 28.6143C24.7031 28.1612 24.6302 27.7576 24.4844 27.4034C24.3385 27.0492 24.1406 26.7263 23.8906 26.4347C23.5885 26.0805 23.2188 25.8123 22.7812 25.63C22.349 25.4477 21.7292 25.3487 20.9219 25.3331H15.2734V36.8487H17.625V32.3331ZM22.2891 28.9425C22.2891 29.5883 22.0495 30.0206 21.5703 30.2393C21.2995 30.3643 20.8932 30.4268 20.3516 30.4268H17.625V27.3331H20.4219C20.9427 27.3331 21.3333 27.4008 21.5938 27.5362C22.0573 27.7758 22.2891 28.2446 22.2891 28.9425ZM30.7531 28.13C29.3208 28.13 28.3104 28.505 27.7219 29.255C27.3521 29.7341 27.1437 30.3461 27.0969 31.0909H29.2453C29.2974 30.7628 29.4016 30.5024 29.5578 30.3097C29.7766 30.0492 30.149 29.919 30.675 29.919C31.1437 29.919 31.4979 29.9867 31.7375 30.1222C31.9823 30.2524 32.1047 30.492 32.1047 30.8409C32.1047 31.1274 31.9458 31.3383 31.6281 31.4737C31.451 31.5518 31.1568 31.617 30.7453 31.669L29.9875 31.7628C29.1281 31.8722 28.4771 32.0545 28.0344 32.3097C27.2271 32.7784 26.8234 33.5362 26.8234 34.5831C26.8234 35.3904 27.0734 36.0154 27.5734 36.4581C28.0786 36.8956 28.7167 37.1143 29.4875 37.1143C30.0917 37.1143 30.6333 36.9763 31.1125 36.7003C31.5135 36.4659 31.8677 36.1821 32.175 35.8487C32.1906 36.0414 32.2115 36.2133 32.2375 36.3643C32.2635 36.5154 32.3104 36.6768 32.3781 36.8487H34.8V36.5206C34.6542 36.4529 34.5448 36.367 34.4719 36.2628C34.399 36.1586 34.3547 35.9607 34.3391 35.669C34.3286 35.2836 34.3234 34.9555 34.3234 34.6847V30.7784C34.3234 29.7524 33.9615 29.0545 33.2375 28.6847C32.5135 28.3149 31.6854 28.13 30.7531 28.13ZM30.1437 35.4972C29.8417 35.4972 29.5865 35.4112 29.3781 35.2393C29.1646 35.0727 29.0578 34.7992 29.0578 34.419C29.0578 33.992 29.2297 33.6768 29.5734 33.4737C29.7766 33.3539 30.1125 33.2524 30.5812 33.169L31.0812 33.0753C31.3312 33.0284 31.5266 32.9789 31.6672 32.9268C31.813 32.8696 31.9562 32.7966 32.0969 32.7081V33.5362C32.0812 34.281 31.8703 34.794 31.4641 35.0753C31.063 35.3565 30.6229 35.4972 30.1437 35.4972ZM41.0062 35.2628V36.9268L39.9516 36.9659C38.8995 37.0024 38.1807 36.8201 37.7953 36.419C37.5453 36.1638 37.4203 35.7706 37.4203 35.2393V29.9972H36.2328V28.4112H37.4203V26.0362H39.6234V28.4112H41.0062V29.9972H39.6234V34.4972C39.6234 34.8461 39.6677 35.0649 39.7562 35.1534C39.8448 35.2367 40.1156 35.2784 40.5687 35.2784H40.7797C40.8578 35.2732 40.9333 35.268 41.0062 35.2628ZM51.4156 32.6065C51.4156 31.3774 51.0563 30.3123 50.3375 29.4112C49.6188 28.5102 48.5276 28.0597 47.0641 28.0597C45.6005 28.0597 44.5094 28.5102 43.7906 29.4112C43.0719 30.3123 42.7125 31.3774 42.7125 32.6065C42.7125 33.8565 43.0719 34.9268 43.7906 35.8175C44.5094 36.7029 45.6005 37.1456 47.0641 37.1456C48.5276 37.1456 49.6188 36.7029 50.3375 35.8175C51.0563 34.9268 51.4156 33.8565 51.4156 32.6065ZM45.5484 30.6378C45.9026 30.1742 46.4052 29.9425 47.0563 29.9425C47.7073 29.9425 48.2073 30.1742 48.5563 30.6378C48.9052 31.0961 49.0797 31.7524 49.0797 32.6065C49.0797 33.4607 48.9052 34.1196 48.5563 34.5831C48.2073 35.0466 47.7073 35.2784 47.0563 35.2784C46.4052 35.2784 45.9026 35.0466 45.5484 34.5831C45.1995 34.1196 45.025 33.4607 45.025 32.6065C45.025 31.7524 45.1995 31.0961 45.5484 30.6378ZM61.5672 25.3487V36.8487H59.4031V35.669C59.0854 36.1742 58.7234 36.5414 58.3172 36.7706C57.9109 36.9998 57.4057 37.1143 56.8016 37.1143C55.8068 37.1143 54.9682 36.7133 54.2859 35.9112C53.6089 35.1039 53.2703 34.0701 53.2703 32.8097C53.2703 31.3565 53.6036 30.2133 54.2703 29.38C54.9422 28.5466 55.838 28.13 56.9578 28.13C57.4734 28.13 57.9318 28.2446 58.3328 28.4737C58.7339 28.6977 59.0594 29.0102 59.3094 29.4112V25.3487H61.5672ZM55.5672 32.6456C55.5672 33.4321 55.7234 34.0597 56.0359 34.5284C56.3432 35.0024 56.812 35.2393 57.4422 35.2393C58.0724 35.2393 58.5516 35.005 58.8797 34.5362C59.2078 34.0675 59.3719 33.4607 59.3719 32.7159C59.3719 31.6742 59.1089 30.9295 58.5828 30.4815C58.2599 30.2107 57.8849 30.0753 57.4578 30.0753C56.8068 30.0753 56.3276 30.3227 56.0203 30.8175C55.7182 31.3071 55.5672 31.9164 55.5672 32.6456ZM71.4141 30.9268C71.3151 29.8852 70.9323 29.1508 70.2656 28.7237C69.5938 28.3018 68.7266 28.0909 67.6641 28.0909C66.5443 28.0909 65.6745 28.3748 65.0547 28.9425C64.4401 29.505 64.1328 30.1795 64.1328 30.9659C64.1328 31.6326 64.3307 32.143 64.7266 32.4972C65.1224 32.8565 65.8021 33.156 66.7656 33.3956C68.1042 33.7133 68.8776 33.9373 69.0859 34.0675C69.2943 34.1977 69.3984 34.3878 69.3984 34.6378C69.3984 34.8982 69.2682 35.0935 69.0078 35.2237C68.7526 35.3539 68.4062 35.419 67.9688 35.419C67.224 35.419 66.7135 35.2706 66.4375 34.9737C66.2812 34.8071 66.1797 34.5258 66.1328 34.13H63.875C63.875 35.005 64.1927 35.7263 64.8281 36.294C65.4688 36.8565 66.4583 37.1378 67.7969 37.1378C69.1094 37.1378 70.0781 36.8722 70.7031 36.3409C71.3333 35.8045 71.6484 35.1143 71.6484 34.2706C71.6484 33.63 71.4297 33.0961 70.9922 32.669C70.5495 32.2472 69.8854 31.9321 69 31.7237C67.6719 31.4321 66.8984 31.2263 66.6797 31.1065C66.4609 30.992 66.3516 30.8071 66.3516 30.5518C66.3516 30.3487 66.4531 30.1716 66.6562 30.0206C66.8646 29.8696 67.2109 29.794 67.6953 29.794C68.2839 29.794 68.7005 29.9451 68.9453 30.2472C69.0755 30.4138 69.1562 30.6404 69.1875 30.9268H71.4141Z" style="fill: rgba(0, 153, 255, 0.78);"/>
  <path d="M9 48.2019H10.3829V54.816H9V48.2019Z" fill="black"/>
  <path d="M16.9871 48.2019V49.3731H14.9942V54.816H13.5933V49.3731H11.5913V48.2019H16.9871Z" fill="black"/>
  <path d="M23.7243 53.8603C24.0526 53.8603 24.3193 53.8244 24.5241 53.7526C24.9128 53.615 25.1071 53.3592 25.1071 52.9853C25.1071 52.7669 25.0107 52.5979 24.8179 52.4782C24.6251 52.3615 24.3223 52.2583 23.9095 52.1686L23.2046 52.0115C22.5116 51.856 22.0326 51.687 21.7675 51.5045C21.3186 51.1994 21.0941 50.7222 21.0941 50.0731C21.0941 49.4808 21.311 48.9887 21.7449 48.5968C22.1787 48.2049 22.8159 48.009 23.6565 48.009C24.3584 48.009 24.9565 48.1944 25.4506 48.5654C25.9477 48.9333 26.2083 49.4688 26.2324 50.1718H24.8947C24.8706 49.7739 24.6959 49.4912 24.3705 49.3237C24.1536 49.213 23.8839 49.1577 23.5616 49.1577C23.203 49.1577 22.9168 49.2295 22.7029 49.3731C22.489 49.5167 22.3821 49.7171 22.3821 49.9744C22.3821 50.2107 22.4875 50.3872 22.6984 50.5038C22.834 50.5816 23.1232 50.6729 23.5661 50.7776L24.7139 51.0513C25.2171 51.1709 25.5967 51.331 25.8528 51.5314C26.2505 51.8425 26.4493 52.2927 26.4493 52.8821C26.4493 53.4863 26.2158 53.9889 25.7488 54.3897C25.2849 54.7876 24.6281 54.9865 23.7785 54.9865C22.9108 54.9865 22.2284 54.7906 21.7313 54.3987C21.2342 54.0038 20.9857 53.4624 20.9857 52.7744H22.3143C22.3565 53.0765 22.4393 53.3024 22.5628 53.4519C22.7888 53.7241 23.1759 53.8603 23.7243 53.8603Z" fill="black"/>
  <path d="M30.8889 55C29.9369 55 29.2093 54.7427 28.7062 54.2282C28.0313 53.597 27.6939 52.6876 27.6939 51.5C27.6939 50.2885 28.0313 49.3791 28.7062 48.7718C29.2093 48.2573 29.9369 48 30.8889 48C31.8409 48 32.5685 48.2573 33.0716 48.7718C33.7435 49.3791 34.0794 50.2885 34.0794 51.5C34.0794 52.6876 33.7435 53.597 33.0716 54.2282C32.5685 54.7427 31.8409 55 30.8889 55ZM32.204 53.2231C32.5263 52.8192 32.6875 52.2449 32.6875 51.5C32.6875 50.7581 32.5248 50.1853 32.1994 49.7814C31.8771 49.3746 31.4402 49.1712 30.8889 49.1712C30.3376 49.1712 29.8977 49.3731 29.5693 49.7769C29.2409 50.1808 29.0767 50.7551 29.0767 51.5C29.0767 52.2449 29.2409 52.8192 29.5693 53.2231C29.8977 53.6269 30.3376 53.8288 30.8889 53.8288C31.4402 53.8288 31.8786 53.6269 32.204 53.2231Z" fill="black"/>
  <path d="M35.6087 48.2019H37.0006V53.6269H40.2995V54.816H35.6087V48.2019Z" fill="black"/>
  <path d="M45.6701 52.2673V48.2019H47.0846V52.2673C47.0846 52.9703 46.9746 53.5177 46.7547 53.9096C46.3449 54.6276 45.5631 54.9865 44.4092 54.9865C43.2554 54.9865 42.472 54.6276 42.0593 53.9096C41.8394 53.5177 41.7294 52.9703 41.7294 52.2673V48.2019H43.1439V52.2673C43.1439 52.722 43.1981 53.0541 43.3066 53.2635C43.4753 53.6344 43.8429 53.8199 44.4092 53.8199C44.9726 53.8199 45.3387 53.6344 45.5074 53.2635C45.6159 53.0541 45.6701 52.722 45.6701 52.2673Z" fill="black"/>
  <path d="M53.7205 48.2019V49.3731H51.7275V54.816H50.3266V49.3731H48.3246V48.2019H53.7205Z" fill="black"/>
  <path d="M54.8927 48.2019H56.2756V54.816H54.8927V48.2019Z" fill="black"/>
  <path d="M60.9863 55C60.0343 55 59.3067 54.7427 58.8036 54.2282C58.1287 53.597 57.7913 52.6876 57.7913 51.5C57.7913 50.2885 58.1287 49.3791 58.8036 48.7718C59.3067 48.2573 60.0343 48 60.9863 48C61.9384 48 62.666 48.2573 63.1691 48.7718C63.8409 49.3791 64.1769 50.2885 64.1769 51.5C64.1769 52.6876 63.8409 53.597 63.1691 54.2282C62.666 54.7427 61.9384 55 60.9863 55ZM62.3014 53.2231C62.6238 52.8192 62.785 52.2449 62.785 51.5C62.785 50.7581 62.6223 50.1853 62.2969 49.7814C61.9745 49.3746 61.5377 49.1712 60.9863 49.1712C60.435 49.1712 59.9952 49.3731 59.6668 49.7769C59.3384 50.1808 59.1742 50.7551 59.1742 51.5C59.1742 52.2449 59.3384 52.8192 59.6668 53.2231C59.9952 53.6269 60.435 53.8288 60.9863 53.8288C61.5377 53.8288 61.976 53.6269 62.3014 53.2231Z" fill="black"/>
  <path d="M71.0929 54.816H69.7011L66.9805 50.1179V54.816H65.6835V48.2019H67.1432L69.796 52.8192V48.2019H71.0929V54.816Z" fill="black"/>
  <path d="M75.275 53.8603C75.6033 53.8603 75.87 53.8244 76.0748 53.7526C76.4635 53.615 76.6578 53.3592 76.6578 52.9853C76.6578 52.7669 76.5614 52.5979 76.3686 52.4782C76.1758 52.3615 75.873 52.2583 75.4602 52.1686L74.7553 52.0115C74.0623 51.856 73.5833 51.687 73.3182 51.5045C72.8693 51.1994 72.6448 50.7222 72.6448 50.0731C72.6448 49.4808 72.8617 48.9887 73.2956 48.5968C73.7294 48.2049 74.3666 48.009 75.2072 48.009C75.9091 48.009 76.5072 48.1944 77.0013 48.5654C77.4984 48.9333 77.759 49.4688 77.7831 50.1718H76.4454C76.4213 49.7739 76.2466 49.4912 75.9212 49.3237C75.7043 49.213 75.4346 49.1577 75.1123 49.1577C74.7538 49.1577 74.4675 49.2295 74.2536 49.3731C74.0397 49.5167 73.9328 49.7171 73.9328 49.9744C73.9328 50.2107 74.0382 50.3872 74.2491 50.5038C74.3847 50.5816 74.6739 50.6729 75.1168 50.7776L76.2646 51.0513C76.7678 51.1709 77.1474 51.331 77.4035 51.5314C77.8012 51.8425 78 52.2927 78 52.8821C78 53.4863 77.7665 53.9889 77.2995 54.3897C76.8356 54.7876 76.1788 54.9865 75.3292 54.9865C74.4615 54.9865 73.7791 54.7906 73.282 54.3987C72.7849 54.0038 72.5364 53.4624 72.5364 52.7744H73.865C73.9072 53.0765 73.99 53.3024 74.1135 53.4519C74.3395 53.7241 74.7266 53.8603 75.275 53.8603Z" fill="black"/>
</svg>
